<?xml version="1.0" ?><svg viewBox="0 0 64 64" xmlns="http://www.w3.org/2000/svg"><defs><style>.cls-1{fill:none;stroke:#FFFFFF;stroke-linejoin:round;stroke-width:2px;}</style></defs><title/><g id="icons"><g data-name="25-brain" id="_25-brain"><polygon class="cls-1" points="6 29 11 35 22 35 26 39 35 39 48 54 48 46 54 46 58 42 58 24 54 20 50 20 50 16 46 12 39 12 37 10 21 10 16 14 12 14 6 20 6 29"/><polyline class="cls-1" points="22 35 22 29 26 25 38 25 41 22"/><polyline class="cls-1" points="29 32 40 32 43 29"/><polyline class="cls-1" points="39 12 36 15 36 18"/><polyline class="cls-1" points="48 46 48 43 45 40 45 36 48 33 51 33"/><polyline class="cls-1" points="50 20 47 20 45 22 44 22"/><polyline class="cls-1" points="16 14 19 17 19 20"/><polyline class="cls-1" points="12 28 12 26 14 24 20 24"/><polyline class="cls-1" points="48 27 52 27 54 29 54 31"/><polyline class="cls-1" points="26 20 26 18 28 16 30 16"/><line class="cls-1" x1="35" x2="39" y1="39" y2="39"/><polyline class="cls-1" points="50 38 52 40 54 40"/><line class="cls-1" x1="45" x2="41" y1="39" y2="39"/></g></g></svg>